<?xml version="1.0" standalone="no"?>
<!DOCTYPE svg PUBLIC "-//W3C//DTD SVG 20010904//EN"
 "http://www.w3.org/TR/2001/REC-SVG-20010904/DTD/svg10.dtd">
<svg version="1.0" xmlns="http://www.w3.org/2000/svg"
 width="1072.000000pt" height="1072.000000pt" viewBox="0 0 1072.000000 1072.000000"
 preserveAspectRatio="xMidYMid meet">
<metadata>
Created by potrace 1.11, written by Peter Selinger 2001-2013
</metadata>
<g transform="translate(0.000000,1072.000000) scale(0.100000,-0.100000)"
fill="#000000" stroke="none">
<path d="M5067 9494 c-2 -3 -49 -7 -103 -9 -55 -3 -110 -7 -124 -10 -14 -3
-53 -7 -87 -10 -34 -2 -77 -6 -95 -9 -18 -4 -46 -8 -63 -11 -16 -2 -41 -7 -55
-9 -14 -3 -47 -8 -74 -11 -27 -3 -52 -8 -56 -10 -3 -2 -26 -6 -50 -9 -25 -3
-63 -11 -85 -16 -22 -6 -51 -13 -65 -16 -77 -16 -125 -28 -205 -50 -33 -9 -67
-18 -75 -19 -26 -6 -172 -52 -261 -81 -46 -16 -87 -27 -91 -26 -5 1 -8 -3 -8
-8 0 -6 -6 -10 -12 -10 -27 0 -258 -94 -423 -171 -38 -18 -72 -33 -75 -34 -15
-3 -187 -94 -305 -160 -22 -12 -56 -31 -75 -41 -19 -11 -37 -21 -40 -24 -3 -3
-34 -23 -70 -44 -203 -122 -497 -340 -715 -529 -65 -57 -434 -424 -480 -478
-12 -13 -43 -51 -70 -84 -28 -33 -53 -62 -56 -65 -4 -3 -37 -43 -73 -90 -37
-47 -73 -93 -81 -103 -8 -9 -15 -20 -15 -24 0 -3 -7 -13 -16 -22 -8 -9 -42
-54 -74 -101 -33 -47 -64 -90 -70 -97 -5 -7 -10 -14 -10 -17 0 -3 -28 -49 -63
-103 -95 -147 -173 -284 -264 -468 -73 -145 -153 -319 -153 -331 0 -3 -6 -20
-14 -37 -32 -69 -50 -112 -51 -122 -1 -5 -7 -21 -12 -35 -23 -57 -115 -322
-119 -345 -1 -5 -12 -44 -24 -85 -13 -41 -24 -82 -26 -90 -1 -8 -12 -51 -23
-95 -11 -44 -22 -91 -24 -105 -3 -14 -10 -43 -15 -65 -6 -22 -13 -56 -16 -75
-9 -55 -15 -91 -26 -140 -5 -25 -12 -67 -15 -93 -4 -27 -8 -57 -10 -66 -2 -10
-6 -42 -9 -72 -3 -30 -8 -64 -11 -77 -2 -13 -7 -58 -10 -100 -3 -42 -8 -95
-10 -117 -2 -22 -7 -124 -10 -227 -6 -154 -4 -188 7 -189 43 -3 10676 -4
10691 0 18 4 18 14 13 170 -10 262 -24 425 -52 611 -2 14 -6 48 -9 75 -3 28
-8 56 -11 64 -2 8 -7 30 -10 50 -21 143 -125 567 -169 691 -9 25 -18 52 -20
60 -11 51 -128 359 -182 480 -49 111 -57 127 -113 240 -70 141 -106 209 -121
226 -6 8 -8 14 -5 14 4 0 -6 19 -22 43 -16 23 -32 49 -35 57 -8 18 -35 62
-105 172 -29 46 -59 92 -65 103 -7 11 -15 22 -18 25 -6 5 -87 121 -104 149 -5
9 -13 18 -16 21 -5 5 -104 133 -154 199 -11 14 -30 38 -41 51 -12 14 -41 48
-65 75 -104 123 -418 441 -528 535 -35 30 -69 60 -75 65 -6 6 -36 30 -66 55
-30 25 -57 47 -60 50 -4 4 -94 72 -135 102 -5 4 -23 18 -40 31 -16 13 -61 45
-100 71 -38 26 -73 53 -77 59 -4 7 -8 9 -8 4 0 -6 -83 45 -116 72 -5 4 -21 14
-35 21 -13 7 -26 16 -29 19 -3 3 -16 12 -29 19 -13 8 -40 23 -60 34 -120 69
-173 97 -321 171 -91 45 -190 93 -220 106 -30 12 -69 29 -85 36 -41 18 -90 37
-90 34 0 -1 -19 8 -42 20 -23 11 -47 21 -54 21 -6 0 -25 6 -42 14 -18 8 -54
22 -82 31 -47 16 -59 20 -77 24 -4 1 -23 8 -43 17 -19 8 -38 15 -42 15 -5 1
-12 3 -18 5 -16 6 -268 75 -290 80 -11 2 -29 6 -40 8 -11 2 -38 9 -60 15 -50
13 -223 47 -290 56 -27 4 -59 9 -70 11 -63 13 -230 34 -295 39 -36 2 -65 5
-65 5 0 10 -739 23 -748 14z"/>
<path d="M19 3795 c-4 -99 -1 -1207 4 -1211 3 -4 215 -7 469 -7 449 0 463 0
463 19 1 10 4 25 8 32 5 6 4 12 0 12 -5 0 -8 31 -7 69 2 47 -1 71 -9 73 -7 2
-162 4 -345 4 l-332 -1 -1 25 c-6 135 -2 310 6 311 6 0 145 1 310 2 l300 2 3
103 3 102 -78 0 c-43 1 -182 0 -309 0 -180 0 -232 2 -236 12 -3 11 -2 217 1
254 1 7 104 10 324 9 177 0 327 0 332 2 8 3 12 143 6 198 -1 7 -160 10 -456
10 -448 0 -455 0 -456 -20z"/>
<path d="M2695 3811 c-3 -2 -5 -281 -5 -620 l0 -616 122 1 123 1 3 270 2 270
245 1 245 0 0 -269 c0 -208 3 -269 13 -270 69 -5 221 1 228 8 6 6 10 48 9 94
0 46 0 93 0 104 1 11 1 25 1 30 -1 21 -1 121 0 135 0 8 0 31 0 50 -1 19 -1 42
0 50 0 8 0 31 0 50 -1 56 -1 74 -1 95 1 11 1 26 1 33 -1 13 -1 74 -2 150 0 26
0 56 1 67 1 11 1 27 0 35 0 8 0 24 0 35 1 11 1 27 1 35 -1 8 -1 42 0 75 0 33
0 67 0 75 -2 95 -3 110 -14 111 -7 1 -63 2 -124 3 l-113 1 0 -242 c0 -187 -3
-243 -12 -244 -7 0 -116 -1 -243 -1 l-230 -1 -5 244 -5 244 -118 0 c-65 1
-120 -1 -122 -4z"/>
<path d="M4539 3812 c-9 -2 -35 -54 -68 -140 -29 -75 -87 -222 -128 -327 -42
-104 -76 -194 -77 -200 -2 -5 -10 -27 -19 -49 -9 -21 -17 -40 -17 -42 0 -1 -5
-15 -12 -31 -6 -15 -12 -30 -13 -33 0 -3 -18 -50 -40 -105 -22 -55 -40 -102
-40 -105 0 -3 -6 -14 -12 -25 -5 -11 -16 -38 -23 -60 -7 -22 -16 -44 -20 -50
-4 -5 -11 -23 -14 -40 l-6 -30 130 0 c71 0 130 1 130 1 0 8 67 190 81 222 11
24 17 47 14 52 -3 5 105 9 247 9 l253 1 33 -88 c19 -48 37 -96 42 -107 4 -11
13 -35 20 -52 10 -26 18 -33 39 -34 169 -4 234 -3 237 3 5 8 -473 1208 -487
1223 -8 8 -212 15 -250 7z m165 -415 c8 -23 27 -73 41 -112 55 -149 75 -209
70 -213 -7 -8 -305 -8 -316 -1 -7 4 -6 15 0 30 8 22 21 56 26 69 1 3 5 12 8
20 3 8 25 67 47 130 23 63 49 134 58 157 l17 43 17 -40 c10 -22 24 -59 32 -83z"/>
<path d="M5540 3810 c-5 -3 4 -56 19 -117 16 -62 26 -115 23 -118 -3 -3 0 -5
7 -5 7 0 10 -4 7 -9 -3 -5 5 -51 18 -103 14 -52 27 -105 29 -118 3 -14 13 -54
22 -90 9 -36 19 -76 21 -90 3 -14 9 -38 14 -55 5 -16 11 -41 13 -55 2 -14 6
-32 9 -40 3 -8 12 -42 19 -75 7 -33 14 -67 16 -75 2 -8 6 -24 8 -35 2 -11 8
-35 14 -52 5 -18 8 -33 6 -33 -3 0 0 -12 6 -27 6 -16 13 -39 15 -53 3 -14 9
-38 14 -55 l10 -30 117 2 c65 1 125 2 134 2 15 1 22 14 34 71 2 8 18 67 35
130 17 63 33 124 35 134 3 10 9 33 14 50 6 17 13 42 15 56 3 14 13 52 22 85 9
33 18 67 20 75 10 44 56 217 61 230 3 8 8 26 10 40 8 51 20 38 42 -50 13 -49
23 -93 23 -97 0 -4 4 -15 9 -24 4 -9 10 -27 13 -40 2 -13 27 -109 56 -214 28
-104 53 -199 55 -210 2 -11 11 -45 20 -75 9 -30 17 -59 19 -65 1 -5 6 -27 11
-48 4 -20 11 -40 17 -43 5 -3 55 -6 111 -6 169 0 151 -7 166 65 7 34 12 62 11
62 -1 0 3 12 9 28 6 15 13 38 15 50 6 35 37 160 43 177 3 8 7 24 8 35 2 11 29
124 60 250 60 245 63 254 69 285 3 12 19 77 35 146 17 69 31 129 31 132 0 9
-236 9 -245 1 -3 -4 -8 -17 -11 -30 -2 -13 -9 -44 -14 -69 -5 -25 -12 -55 -15
-67 -9 -40 -73 -332 -80 -366 -2 -9 -6 -20 -8 -25 -3 -4 -8 -29 -11 -56 -4
-27 -9 -53 -11 -56 -2 -4 -7 -20 -10 -36 -3 -16 -12 -56 -19 -89 -12 -56 -14
-58 -21 -30 -4 17 -16 62 -26 100 -11 39 -22 86 -25 105 -3 19 -11 41 -16 48
-6 6 -8 12 -5 12 3 0 0 21 -8 48 -8 26 -16 59 -19 73 -4 25 -28 122 -45 184
-5 17 -13 50 -19 75 -12 50 -25 102 -27 110 -1 3 -5 20 -9 38 -4 17 -13 33
-19 33 -7 1 -72 2 -145 3 -124 1 -135 0 -145 -19 -6 -11 -13 -29 -15 -40 -2
-11 -4 -24 -6 -30 -1 -5 -5 -16 -9 -22 -5 -7 -6 -13 -3 -13 3 0 1 -11 -4 -25
-5 -14 -12 -36 -15 -48 -6 -30 -27 -107 -68 -262 -19 -71 -49 -184 -67 -250
-28 -107 -38 -138 -41 -124 0 2 -3 13 -5 24 -3 11 -7 30 -9 42 -1 11 -6 30 -9
41 -7 21 -13 47 -21 97 -3 17 -8 37 -10 45 -2 8 -7 26 -9 40 -3 14 -11 48 -16
75 -6 28 -13 61 -16 75 -3 14 -8 34 -11 45 -3 11 -7 29 -9 40 -2 11 -5 30 -8
43 -4 12 -8 32 -11 45 -2 12 -9 43 -15 68 -6 26 -13 53 -14 60 -13 68 -19 89
-25 90 -25 4 -234 3 -241 -1z"/>
<path d="M7870 3810 c-7 -5 -29 -65 -31 -85 0 -5 -8 -18 -16 -27 -9 -10 -13
-18 -10 -18 3 0 -6 -28 -19 -62 -14 -35 -52 -133 -85 -218 -33 -85 -64 -164
-69 -175 -12 -26 -141 -357 -144 -370 -1 -5 -10 -27 -19 -49 -9 -21 -17 -45
-17 -52 0 -8 -5 -14 -12 -14 -6 0 -9 -3 -6 -6 3 -3 -4 -31 -17 -62 -43 -107
-52 -97 91 -96 75 1 129 5 136 12 6 6 19 37 30 69 10 32 22 65 25 73 3 8 7 17
8 20 1 3 7 18 13 33 7 15 15 39 18 52 l6 24 248 0 249 0 39 -102 c22 -56 45
-119 53 -139 11 -32 18 -38 44 -39 38 -1 205 -1 227 0 13 1 -35 129 -229 614
-135 336 -247 614 -249 616 -6 7 -254 7 -264 1z m150 -337 c6 -21 15 -47 20
-58 5 -11 18 -47 30 -80 11 -33 24 -69 29 -80 5 -11 14 -36 21 -55 12 -36 20
-55 39 -102 9 -24 8 -28 -7 -29 -43 -3 -308 -4 -313 -2 -4 2 9 45 28 95 19 51
36 98 37 103 1 6 8 21 16 35 7 14 12 27 11 30 -4 10 62 180 69 180 5 0 14 -17
20 -37z"/>
<path d="M8999 3815 c-7 0 -2 -1228 5 -1232 11 -7 221 -7 233 0 5 3 8 118 8
256 -1 216 1 250 15 254 26 6 121 -2 157 -14 35 -11 133 -98 133 -117 0 -6 6
-17 13 -24 15 -16 145 -207 170 -250 10 -17 32 -49 50 -72 l32 -41 137 0 c75
1 140 4 144 7 3 4 -3 20 -15 36 -12 17 -21 35 -21 40 0 6 -3 12 -7 14 -11 4
-63 86 -63 98 0 5 -3 10 -8 10 -4 0 -19 21 -32 48 -14 26 -28 49 -31 52 -3 3
-20 26 -37 52 -41 60 -118 139 -159 163 -18 11 -33 22 -33 26 0 3 18 9 40 13
57 9 148 54 187 93 62 63 86 130 86 243 0 105 -28 175 -95 242 -54 55 -107 78
-208 94 -31 5 -618 12 -701 9z m646 -218 c11 -3 22 -6 25 -6 11 -2 58 -47 67
-66 5 -11 11 -42 12 -69 2 -37 -4 -57 -23 -87 -45 -67 -66 -73 -283 -77 -106
-2 -194 0 -194 4 -6 41 -3 300 3 305 10 6 365 3 393 -4z"/>
<path d="M10469 3805 c-6 -62 -2 -1218 4 -1222 7 -4 118 -7 207 -4 l36 1 -1
617 0 617 -122 1 c-78 0 -123 -3 -124 -10z"/>
<path d="M1413 3790 c-2 -8 -5 -284 -6 -613 l-2 -597 35 -1 c43 -1 750 -1 803
0 l38 1 -3 103 -3 102 -302 0 c-166 0 -304 3 -308 7 -4 3 -7 233 -6 510 l0
504 -121 -1 c-99 0 -122 -3 -125 -15z"/>
<path d="M5078 1846 c-53 -27 -82 -66 -80 -108 3 -50 7 -65 21 -82 7 -9 10
-16 7 -16 -4 0 0 -7 8 -16 23 -22 20 -30 -18 -52 -43 -25 -89 -92 -90 -132 -1
-17 -4 -30 -8 -30 -14 0 21 -93 44 -117 39 -42 96 -65 162 -66 60 0 166 27
166 43 0 12 32 22 39 12 3 -5 24 -21 46 -35 l40 -27 37 43 c43 47 46 36 -31
96 -24 18 -29 27 -21 36 6 8 19 35 29 62 l18 49 -53 15 c-55 17 -60 14 -68
-35 -3 -23 -24 -11 -59 35 l-39 51 41 35 c53 45 70 78 66 129 -4 53 -18 75
-68 103 -55 32 -134 35 -189 7z m151 -99 c11 -30 4 -48 -31 -76 l-31 -25 -27
34 c-14 18 -27 40 -27 49 0 22 28 53 44 47 7 -3 15 -1 18 4 9 15 45 -7 54 -33z
m-70 -273 c13 -19 37 -49 53 -67 15 -18 28 -35 28 -38 0 -16 -83 -47 -118 -43
-47 4 -99 58 -79 82 6 8 11 17 10 19 -16 21 45 97 70 87 7 -2 23 -20 36 -40z"/>
<path d="M6012 1855 c-65 -15 -100 -40 -129 -90 -37 -67 -17 -156 46 -203 39
-28 68 -40 159 -62 40 -10 84 -26 97 -34 51 -33 39 -96 -23 -122 -79 -33 -162
-4 -189 66 -16 39 -16 39 -62 34 -25 -3 -51 -6 -58 -6 -20 -2 -4 -71 29 -123
46 -70 162 -102 297 -81 73 11 120 48 148 114 31 74 13 151 -49 209 -22 20
-120 57 -179 67 -31 5 -105 41 -114 55 -11 18 7 60 28 68 86 28 148 13 176
-44 15 -30 18 -31 73 -30 54 2 64 7 58 32 -1 6 -3 18 -5 27 -20 98 -163 156
-303 123z"/>
<path d="M7871 1852 c-175 -49 -253 -299 -153 -489 48 -91 127 -136 244 -136
65 0 83 4 122 27 50 29 96 74 96 93 0 6 4 13 9 15 5 2 12 17 15 34 7 31 6 31
-52 48 -72 20 -67 20 -69 -5 -6 -79 -119 -133 -193 -92 -66 37 -82 78 -83 208
0 90 19 145 64 177 29 22 100 31 136 17 32 -12 73 -57 73 -81 0 -15 4 -17 18
-9 9 5 20 9 25 9 4 0 25 3 48 7 35 6 39 10 33 28 -37 125 -184 190 -333 149z"/>
<path d="M2151 1851 c-4 -4 -8 -142 -8 -308 l0 -303 23 -1 c13 -1 41 -2 62 -3
l37 -1 2 113 c0 62 3 115 5 117 2 2 44 5 93 6 50 1 103 6 119 10 39 11 96 51
96 67 0 6 4 12 9 12 13 0 28 72 26 122 -4 82 -59 150 -133 165 -37 7 -320 10
-331 4z m312 -133 c25 -25 28 -33 22 -65 -11 -61 -38 -75 -147 -78 -43 -1 -68
2 -69 9 -1 18 -1 140 0 154 1 10 22 13 83 11 76 -2 85 -4 111 -31z"/>
<path d="M2719 1851 c-1 -4 -2 -142 -3 -308 -1 -196 3 -303 9 -304 5 0 33 -1
60 -2 l50 0 2 39 c4 64 3 145 -1 153 -3 4 -1 13 4 20 4 8 4 27 0 42 -5 17 -5
31 1 35 6 4 6 11 -2 20 -7 9 -8 14 -1 14 7 0 8 10 2 29 -4 16 -6 32 -3 35 5 5
5 45 0 169 -1 26 2 47 7 47 5 0 6 3 2 7 -8 8 -125 12 -127 4z"/>
<path d="M2945 1850 c-1 -3 -3 -26 -3 -52 l-1 -48 139 0 c87 0 140 -4 140 -10
0 -5 -8 -18 -17 -28 -10 -9 -34 -38 -53 -62 -19 -25 -39 -50 -45 -56 -5 -6
-23 -28 -40 -48 -16 -21 -38 -48 -48 -60 -26 -29 -62 -75 -90 -113 -21 -29
-25 -57 -18 -128 1 -6 91 -10 248 -10 l248 1 2 52 2 52 -177 2 -177 3 20 20
c11 11 35 41 54 65 19 25 39 50 45 55 6 6 58 68 114 138 84 104 104 136 107
165 5 70 14 67 -228 67 -120 0 -220 -2 -222 -5z"/>
<path d="M3481 1852 c-6 -2 -11 -26 -11 -53 l0 -49 148 0 c81 0 142 -4 137 -8
-6 -4 -26 -27 -45 -52 -19 -25 -37 -47 -40 -50 -3 -3 -23 -27 -44 -55 -22 -27
-46 -57 -53 -65 -7 -8 -37 -44 -65 -80 -29 -36 -57 -68 -63 -72 -12 -8 -15
-109 -4 -123 6 -8 376 -12 479 -6 12 1 16 13 16 51 l1 50 -173 2 -174 3 33 41
c18 23 46 59 63 79 16 21 34 43 39 49 6 6 28 33 50 61 42 52 50 62 109 133 20
24 36 47 37 50 5 39 4 74 -2 84 -6 10 -60 13 -218 13 -115 0 -214 -1 -220 -3z"/>
<path d="M4190 1846 c-6 -6 -10 -18 -10 -28 0 -10 -4 -18 -8 -18 -5 0 -9 -6
-9 -12 0 -13 -81 -224 -108 -285 -8 -17 -15 -35 -15 -40 0 -7 -35 -97 -61
-158 -5 -11 -13 -31 -18 -45 l-9 -25 62 1 c33 1 64 3 67 3 4 1 14 25 23 54 27
85 21 82 156 83 l122 1 11 -26 c5 -14 11 -28 12 -31 6 -23 30 -80 35 -81 34
-5 123 -3 126 3 3 4 0 15 -5 25 -5 10 -44 106 -86 213 -42 107 -80 204 -85
215 -17 40 -38 91 -50 123 -7 17 -15 33 -19 33 -30 6 -124 2 -131 -5z m110
-251 c22 -59 40 -110 40 -113 0 -2 -16 -2 -35 1 -19 3 -37 1 -41 -4 -3 -5 -9
-7 -13 -5 -4 3 -23 6 -43 8 l-35 2 27 70 c15 39 30 80 35 91 11 26 12 32 14
52 2 26 8 13 51 -102z"/>
<path d="M6452 1546 l3 -311 45 0 c25 0 50 1 55 2 6 2 10 73 9 191 0 103 2
191 4 196 3 4 25 -27 51 -70 25 -44 65 -108 88 -144 24 -36 43 -71 43 -77 0
-7 4 -13 8 -13 5 0 15 -12 23 -27 24 -48 43 -59 100 -57 l54 1 2 109 c1 60 3
114 4 119 1 6 1 13 0 17 0 3 0 48 0 100 0 51 0 102 0 113 0 11 -2 51 -3 90
l-3 70 -55 0 -55 0 0 -197 c-1 -109 -3 -199 -5 -202 -4 -3 -118 177 -165 262
-9 16 -75 121 -82 131 -1 2 -30 5 -63 6 l-60 2 2 -311z"/>
<path d="M7228 1801 c-12 -31 -23 -60 -25 -66 -6 -28 -69 -181 -76 -186 -5 -3
-8 -8 -6 -10 4 -7 -23 -83 -37 -106 -8 -13 -12 -23 -10 -23 3 0 -8 -32 -24
-71 -44 -106 -45 -103 27 -103 61 -1 63 0 74 29 6 17 15 39 19 50 5 11 11 29
14 41 6 19 13 20 133 20 126 -1 127 -1 134 -26 4 -14 16 -45 27 -70 l19 -46
64 2 c42 1 63 5 62 13 -4 14 -235 594 -240 600 -2 3 -32 5 -68 6 l-64 2 -23
-56z m102 -125 c0 -8 8 -31 17 -52 9 -22 18 -48 20 -58 2 -11 8 -25 14 -33 6
-7 8 -13 5 -13 -4 0 -2 -9 5 -21 11 -21 9 -21 -40 -17 -28 3 -51 1 -51 -3 0
-4 -13 -4 -29 1 -16 4 -32 6 -35 2 -3 -3 9 37 27 89 17 52 35 96 40 97 4 2 7
10 7 18 0 9 5 12 10 9 6 -3 10 -12 10 -19z"/>
<path d="M8326 1851 c-2 -3 -3 -19 -2 -36 1 -16 -2 -40 -6 -52 -4 -13 -4 -23
0 -23 6 0 8 -79 2 -105 -1 -5 -1 -12 0 -15 5 -14 4 -103 -2 -106 -4 -3 -4 -12
-1 -20 9 -24 10 -66 1 -91 -4 -13 -4 -23 0 -23 4 0 6 -31 6 -70 -1 -45 2 -70
10 -71 33 -3 92 -4 102 -2 6 2 11 41 11 97 l1 93 47 46 c26 26 50 45 55 42 5
-3 41 -62 81 -131 40 -70 78 -132 84 -138 7 -7 40 -11 81 -10 91 3 91 3 78 12
-6 4 -26 33 -45 65 -18 31 -37 57 -41 57 -5 0 -8 5 -8 11 0 6 -11 25 -25 43
-14 18 -25 36 -25 40 0 9 -43 70 -52 74 -5 2 -8 9 -8 15 0 7 -9 23 -19 37
l-19 24 46 47 c156 158 186 189 181 190 -2 1 -39 2 -82 3 l-79 1 -76 -84 c-42
-46 -83 -91 -91 -98 -7 -8 -29 -32 -47 -54 -26 -31 -34 -36 -35 -22 0 10 -1
71 -2 136 0 64 -3 118 -6 118 -22 5 -113 4 -115 0z"/>
</g>
</svg>
